ffmpeg started on 2016-11-23 at 20:16:06
Report written to "Output/NVENCh264/results/ffmpeg/sintelfast6000k.log"
Command line:
Tools/ffmpeg/ffmpeg -benchmark -y -i Input/y4m/sintel.y4m -c:v h264_nvenc -preset fast -b:v 6000k -an Output/NVENCh264/encoded/sintelfast6000k.mkv
ffmpeg version N-82227-gdb23fde Copyright (c) 2000-2016 the FFmpeg developers
  built with gcc 5.4.0 (Ubuntu 5.4.0-6ubuntu1~16.04.2) 20160609
  configuration: --prefix=/home/jaroslav/ffmpeg_build --pkg-config-flags=--static --extra-cflags=-I/home/jaroslav/ffmpeg_build/include --extra-ldflags=-L/home/jaroslav/ffmpeg_build/lib --bindir=/home/jaroslav/bin --enable-gpl --enable-libass --enable-libfdk-aac --enable-libfreetype --enable-libmp3lame --enable-libopus --enable-libtheora --enable-libvorbis --enable-libvpx --enable-libx264 --enable-libx265 --enable-nvenc --enable-libmfx --enable-libxvid --enable-libgsm --enable-libopencore-amrnb --enable-version3 --enable-nonfree
  libavutil      55. 35.100 / 55. 35.100
  libavcodec     57. 66.101 / 57. 66.101
  libavformat    57. 57.100 / 57. 57.100
  libavdevice    57.  2.100 / 57.  2.100
  libavfilter     6. 66.100 /  6. 66.100
  libswscale      4.  3.100 /  4.  3.100
  libswresample   2.  4.100 /  2.  4.100
  libpostproc    54.  2.100 / 54.  2.100
Input #0, yuv4mpegpipe, from 'Input/y4m/sintel.y4m':
  Duration: 00:00:20.83, start: 0.000000, bitrate: 2057307 kb/s
    Stream #0:0: Video: rawvideo (I420 / 0x30323449), yuv420p(progressive), 4096x1744, SAR 1:1 DAR 256:109, 24 fps, 24 tbr, 24 tbn, 24 tbc
Output #0, matroska, to 'Output/NVENCh264/encoded/sintelfast6000k.mkv':
  Metadata:
    encoder         : Lavf57.57.100
    Stream #0:0: Video: h264 (h264_nvenc) (Main) (H264 / 0x34363248), yuv420p, 4096x1744 [SAR 1:1 DAR 256:109], q=-1--1, 6000 kb/s, 24 fps, 1k tbn, 24 tbc
    Metadata:
      encoder         : Lavc57.66.101 h264_nvenc
    Side data:
      cpb: bitrate max/min/avg: 0/0/6000000 buffer size: 12000000 vbv_delay: -1
Stream mapping:
  Stream #0:0 -> #0:0 (rawvideo (native) -> h264 (h264_nvenc))
Press [q] to stop, [?] for help
frame=    3 fps=1.3 q=0.0 size=       0kB time=00:00:00.00 bitrate=N/A speed=   0x    frame=   24 fps=8.7 q=0.0 size=       0kB time=00:00:00.00 bitrate=N/A speed=   0x    frame=   45 fps= 14 q=41.0 size=       1kB time=00:00:00.58 bitrate=  10.0kbits/s speed=0.178x    frame=   66 fps= 17 q=44.0 size=       1kB time=00:00:01.45 bitrate=   4.0kbits/s speed=0.385x    frame=   87 fps= 20 q=43.0 size=       1kB time=00:00:02.33 bitrate=   2.5kbits/s speed=0.543x    frame=  108 fps= 22 q=44.0 size=       1kB time=00:00:03.20 bitrate=   1.8kbits/s speed=0.668x    frame=  129 fps= 24 q=44.0 size=       1kB time=00:00:04.08 bitrate=   1.4kbits/s speed=0.768x    frame=  150 fps= 26 q=43.0 size=    3846kB time=00:00:04.95 bitrate=6353.5kbits/s speed=0.849x    frame=  171 fps= 27 q=44.0 size=    3846kB time=00:00:05.83 bitrate=5400.6kbits/s speed=0.918x    frame=  192 fps= 28 q=43.0 size=    3846kB time=00:00:06.70 bitrate=4696.2kbits/s speed=0.978x    frame=  199 fps= 26 q=43.0 size=    3846kB time=00:00:07.00 bitrate=4500.4kbits/s speed=0.914x    frame=  200 fps= 18 q=43.0 size=    3846kB time=00:00:07.04 bitrate=4473.5kbits/s speed=0.64x    frame=  217 fps= 19 q=44.0 size=    3846kB time=00:00:07.75 bitrate=4064.9kbits/s speed=0.673x    frame=  238 fps= 20 q=43.0 size=    3846kB time=00:00:08.62 bitrate=3652.6kbits/s speed=0.717x    frame=  259 fps= 21 q=42.0 size=    3846kB time=00:00:09.50 bitrate=3316.2kbits/s speed=0.757x    frame=  280 fps= 21 q=42.0 size=    6900kB time=00:00:10.37 bitrate=5447.6kbits/s speed=0.794x    frame=  301 fps= 22 q=41.0 size=    7375kB time=00:00:11.25 bitrate=5369.6kbits/s speed=0.828x    frame=  322 fps= 23 q=40.0 size=    7375kB time=00:00:12.12 bitrate=4982.1kbits/s speed=0.86x    frame=  343 fps= 23 q=37.0 size=    7375kB time=00:00:13.00 bitrate=4646.8kbits/s speed=0.89x    frame=  364 fps= 24 q=36.0 size=    7375kB time=00:00:13.87 bitrate=4353.8kbits/s speed=0.918x    frame=  385 fps= 25 q=34.0 size=    7375kB time=00:00:14.75 bitrate=4095.5kbits/s speed=0.944x    frame=  406 fps= 25 q=37.0 size=    7375kB time=00:00:15.62 bitrate=3866.2kbits/s speed=0.968x    frame=  427 fps= 26 q=37.0 size=    9680kB time=00:00:16.50 bitrate=4805.7kbits/s speed=0.991x    frame=  448 fps= 26 q=36.0 size=    9680kB time=00:00:17.37 bitrate=4563.7kbits/s speed=1.01x    frame=  469 fps= 27 q=37.0 size=   10457kB time=00:00:18.25 bitrate=4693.6kbits/s speed=1.03x    frame=  490 fps= 27 q=36.0 size=   10457kB time=00:00:19.12 bitrate=4478.9kbits/s speed=1.05x    frame=  500 fps= 27 q=35.0 Lsize=   12433kB time=00:00:20.79 bitrate=4898.5kbits/s speed=1.13x    
video:12429kB audio:0kB subtitle:0kB other streams:0kB global headers:0kB muxing overhead: 0.038391%
bench: utime=0.872s
bench: maxrss=837228kB
